<svg width="10" height="6" viewBox="0 0 10 6" fill="none" xmlns="http://www.w3.org/2000/svg">
<path id="Vector" d="M0.231553 0.506483C0.372199 0.374264 0.56293 0.299988 0.761803 0.299988C0.960676 0.299988 1.15141 0.374264 1.29205 0.506483L5.00455 3.9976L8.71705 0.506483C8.85851 0.378011 9.04796 0.306923 9.24461 0.30853C9.44125 0.310137 9.62936 0.38431 9.76842 0.515074C9.90747 0.645838 9.98635 0.82273 9.98806 1.00765C9.98977 1.19257 9.91417 1.37073 9.77755 1.50374L5.5348 5.49349C5.39416 5.62571 5.20343 5.69999 5.00455 5.69999C4.80568 5.69999 4.61495 5.62571 4.4743 5.49349L0.231553 1.50374C0.0909495 1.37148 0.0119629 1.19213 0.0119629 1.00511C0.0119629 0.818099 0.0909495 0.638742 0.231553 0.506483Z" fill="black"/>
</svg>
