<svg width="16" height="16" viewBox="0 0 16 16" fill="none" xmlns="http://www.w3.org/2000/svg">
<path id="Vector" d="M15.6625 14.0465C15.8771 14.2611 15.9976 14.5521 15.9976 14.8556C15.9976 15.1591 15.8771 15.4502 15.6625 15.6648C15.4478 15.8794 15.1568 16 14.8533 16C14.5498 16 14.2587 15.8794 14.0441 15.6648L8.00001 9.61883L1.95402 15.6629C1.73941 15.8775 1.44834 15.9981 1.14484 15.9981C0.841339 15.9981 0.550269 15.8775 0.335661 15.6629C0.121054 15.4483 0.000488284 15.1572 0.000488281 14.8537C0.000488278 14.5502 0.121054 14.2592 0.335661 14.0446L6.38165 8.00048L0.337565 1.95448C0.122957 1.73987 0.00239227 1.4488 0.00239227 1.1453C0.00239228 0.841803 0.122957 0.550732 0.337565 0.336125C0.552172 0.121517 0.843243 0.000951818 1.14674 0.000951815C1.45024 0.000951812 1.74132 0.121517 1.95592 0.336125L8.00001 6.38212L14.046 0.335173C14.2606 0.120565 14.5517 -5.05633e-09 14.8552 0C15.1587 5.05633e-09 15.4498 0.120565 15.6644 0.335173C15.879 0.54978 15.9995 0.84085 15.9995 1.14435C15.9995 1.44785 15.879 1.73892 15.6644 1.95353L9.61837 8.00048L15.6625 14.0465Z" fill="black"/>
</svg>
