<svg width="45" height="45" viewBox="0 0 45 45" fill="none" xmlns="http://www.w3.org/2000/svg">
<g clip-path="url(#clip0_226_127)">
<path d="M45 22.5C45 10.0736 34.9264 0 22.5 0C10.0736 0 0 10.0736 0 22.5C0 34.9264 10.0736 45 22.5 45C34.9264 45 45 34.9264 45 22.5Z" fill="#F06544"/>
<path d="M30 20H25V15C25 14.337 24.7366 13.7011 24.2678 13.2322C23.7989 12.7634 23.163 12.5 22.5 12.5C21.837 12.5 21.2011 12.7634 20.7322 13.2322C20.2634 13.7011 20 14.337 20 15L20.0887 20H15C14.337 20 13.7011 20.2634 13.2322 20.7322C12.7634 21.2011 12.5 21.837 12.5 22.5C12.5 23.163 12.7634 23.7989 13.2322 24.2678C13.7011 24.7366 14.337 25 15 25L20.0887 24.9113L20 30C20 30.663 20.2634 31.2989 20.7322 31.7678C21.2011 32.2366 21.837 32.5 22.5 32.5C23.163 32.5 23.7989 32.2366 24.2678 31.7678C24.7366 31.2989 25 30.663 25 30V24.9113L30 25C30.663 25 31.2989 24.7366 31.7678 24.2678C32.2366 23.7989 32.5 23.163 32.5 22.5C32.5 21.837 32.2366 21.2011 31.7678 20.7322C31.2989 20.2634 30.663 20 30 20Z" fill="white"/>
</g>
<defs>
<clipPath id="clip0_226_127">
<rect width="45" height="45" fill="white"/>
</clipPath>
</defs>
</svg>
