<svg width="45" height="45" viewBox="0 0 45 45" fill="none" xmlns="http://www.w3.org/2000/svg">
<path d="M20.9882 11.0361C21.4158 10.6893 21.9495 10.5 22.5 10.5C23.0505 10.5 23.5843 10.6893 24.0118 11.0361L33.1641 18.4511C33.5803 18.7881 33.916 19.2137 34.1468 19.6969C34.3776 20.1801 34.4977 20.7088 34.4983 21.2443V32.1003C34.4983 32.7368 34.2455 33.3471 33.7955 33.7972C33.3455 34.2472 32.7351 34.5 32.0987 34.5H28.4992C27.8627 34.5 27.2524 34.2472 26.8024 33.7972C26.3523 33.3471 26.0995 32.7368 26.0995 32.1003V26.1012C26.0995 25.783 25.9731 25.4778 25.7481 25.2528C25.5231 25.0278 25.2179 24.9013 24.8997 24.9013H20.1004C19.7821 24.9013 19.477 25.0278 19.252 25.2528C19.0269 25.4778 18.9005 25.783 18.9005 26.1012V32.1003C18.9005 32.7368 18.6477 33.3471 18.1977 33.7972C17.7477 34.2472 17.1373 34.5 16.5009 34.5H12.9014C12.2649 34.5 11.6546 34.2472 11.2046 33.7972C10.7545 33.3471 10.5017 32.7368 10.5017 32.1003V21.2467C10.5016 20.7103 10.6213 20.1808 10.8522 19.6967C11.083 19.2126 11.4191 18.7862 11.8359 18.4487L20.9882 11.0361Z" fill="black"/>
</svg>
