<svg width="48" height="48" viewBox="0 0 48 48" fill="none" xmlns="http://www.w3.org/2000/svg">
<rect width="48" height="48" rx="24" fill="black"/>
<g clip-path="url(#clip0_177_99)">
<path d="M28.2332 13H28.3897C28.5154 14.5515 27.923 15.7107 27.2033 16.5503C26.4971 17.3841 25.5302 18.1926 23.966 18.0699C23.8618 16.5406 24.455 15.4673 25.1736 14.6296C25.8404 13.8492 27.0625 13.1546 28.2332 13Z" fill="white"/>
<path d="M32.968 29.1485V29.192C32.5286 30.5233 31.9016 31.6642 31.1362 32.723C30.4377 33.6841 29.5819 34.9777 28.0535 34.9777C26.7329 34.9777 25.8557 34.1285 24.5021 34.1054C23.0705 34.0823 22.2832 34.8155 20.9742 35H20.5278C19.5667 34.8608 18.7909 34.0996 18.2258 33.4138C16.5596 31.387 15.2718 28.769 15.0322 25.4187V24.4342C15.1337 22.0365 16.2986 20.087 17.8474 19.1421C18.6647 18.6397 19.7881 18.2118 21.0393 18.4032C21.5756 18.4863 22.1234 18.67 22.6033 18.8515C23.0584 19.0264 23.6274 19.3363 24.1664 19.3201C24.5316 19.3093 24.8948 19.119 25.2628 18.9848C26.3408 18.5954 27.3979 18.1491 28.7908 18.3589C30.465 18.6119 31.6532 19.3558 32.3875 20.5036C30.9712 21.4051 29.8517 22.7633 30.0428 25.0827C30.2128 27.1897 31.4379 28.4223 32.968 29.1488V29.1485Z" fill="white"/>
</g>
<defs>
<clipPath id="clip0_177_99">
<rect width="17.9358" height="22" fill="white" transform="translate(15.0322 13)"/>
</clipPath>
</defs>
</svg>
