<svg width="24" height="24" viewBox="0 0 24 24" fill="none" xmlns="http://www.w3.org/2000/svg">
<path d="M11.143 12.1804V5.67868C11.143 5.45135 11.2333 5.23333 11.394 5.07258C11.5547 4.91184 11.7728 4.82153 12.0001 4.82153C12.2274 4.82153 12.4454 4.91184 12.6062 5.07258C12.7669 5.23333 12.8572 5.45135 12.8572 5.67868V12.1804L15.1087 9.9301C15.1882 9.85056 15.2826 9.78746 15.3866 9.74442C15.4905 9.70137 15.6019 9.67921 15.7144 9.67921C15.8269 9.67921 15.9383 9.70137 16.0422 9.74442C16.1461 9.78746 16.2406 9.85056 16.3201 9.9301C16.3996 10.0096 16.4627 10.1041 16.5058 10.208C16.5488 10.3119 16.571 10.4233 16.571 10.5358C16.571 10.6483 16.5488 10.7597 16.5058 10.8636C16.4627 10.9676 16.3996 11.062 16.3201 11.1415L12.6058 14.8558C12.5263 14.9354 12.4319 14.9986 12.328 15.0417C12.224 15.0848 12.1126 15.107 12.0001 15.107C11.8876 15.107 11.7762 15.0848 11.6722 15.0417C11.5683 14.9986 11.4739 14.9354 11.3944 14.8558L7.68009 11.1415C7.60055 11.062 7.53745 10.9676 7.4944 10.8636C7.45136 10.7597 7.4292 10.6483 7.4292 10.5358C7.4292 10.4233 7.45136 10.3119 7.4944 10.208C7.53745 10.1041 7.60055 10.0096 7.68009 9.9301C7.75964 9.85056 7.85407 9.78746 7.958 9.74442C8.06193 9.70137 8.17332 9.67921 8.28581 9.67921C8.3983 9.67921 8.50969 9.70137 8.61362 9.74442C8.71755 9.78746 8.81198 9.85056 8.89152 9.9301L11.143 12.1804Z" fill="black"/>
<path d="M5.625 19.1784C5.06141 19.1784 4.52091 18.9545 4.1224 18.556C3.72388 18.1574 3.5 17.6169 3.5 17.0534V14.0176C3.5 13.7761 3.59595 13.5445 3.76674 13.3737C3.93753 13.2029 4.16918 13.1069 4.41071 13.1069C4.65225 13.1069 4.88389 13.2029 5.05469 13.3737C5.22548 13.5445 5.32143 13.7761 5.32143 14.0176V17.0534C5.32143 17.2209 5.45743 17.3569 5.625 17.3569H18.375C18.4555 17.3569 18.5327 17.325 18.5897 17.268C18.6466 17.2111 18.6786 17.1339 18.6786 17.0534V14.0176C18.6786 13.7761 18.7745 13.5445 18.9453 13.3737C19.1161 13.2029 19.3477 13.1069 19.5893 13.1069C19.8308 13.1069 20.0625 13.2029 20.2333 13.3737C20.404 13.5445 20.5 13.7761 20.5 14.0176V17.0534C20.5 17.6169 20.2761 18.1574 19.8776 18.556C19.4791 18.9545 18.9386 19.1784 18.375 19.1784H5.625Z" fill="black"/>
</svg>
