<?xml version="1.0" standalone="no"?>
<!DOCTYPE svg PUBLIC "-//W3C//DTD SVG 20010904//EN"
 "http://www.w3.org/TR/2001/REC-SVG-20010904/DTD/svg10.dtd">
<svg version="1.0" xmlns="http://www.w3.org/2000/svg"
 width="1024.000000pt" height="1024.000000pt" viewBox="0 0 1024.000000 1024.000000"
 preserveAspectRatio="xMidYMid meet">

<g transform="translate(0.000000,1024.000000) scale(0.100000,-0.100000)"
fill="#000000" stroke="none">
<path d="M4170 7170 c-61 -15 -123 -46 -185 -93 -97 -73 -154 -157 -176 -257
l-11 -50 -42 0 c-58 0 -107 -34 -124 -85 -11 -34 -11 -46 4 -83 20 -53 62 -82
122 -82 l42 0 0 -115 0 -115 -49 0 c-43 0 -55 -5 -85 -34 -32 -30 -36 -39 -36
-83 0 -78 56 -133 135 -133 l35 0 0 -109 0 -109 -55 -4 c-64 -5 -100 -32 -114
-85 -13 -47 3 -96 45 -132 28 -25 44 -31 79 -31 l45 0 0 -100 0 -100 -32 0
c-18 0 -52 -9 -76 -20 -122 -55 -66 -240 73 -240 l35 0 0 -119 0 -119 -55 -4
c-124 -10 -163 -135 -69 -218 28 -24 44 -30 79 -30 l45 0 0 -120 0 -120 -36 0
c-49 0 -102 -27 -119 -61 -8 -15 -15 -48 -15 -72 0 -36 6 -48 33 -74 45 -43
70 -54 106 -47 30 6 31 6 31 -33 0 -146 153 -347 311 -408 l74 -29 1084 -4
c1064 -3 1085 -3 1150 17 37 11 77 18 89 14 13 -3 22 -1 22 6 0 6 -7 8 -17 4
-11 -4 -14 -3 -9 6 5 7 16 9 28 5 13 -4 18 -2 14 4 -7 12 5 21 34 27 11 2 18
0 15 -5 -10 -16 11 -19 39 -5 16 8 33 12 38 9 6 -4 15 0 20 7 8 11 11 11 15 1
4 -10 8 -10 19 -1 11 9 14 8 14 -4 0 -9 4 -18 9 -21 4 -3 6 6 3 19 -2 15 0 25
7 25 15 0 15 2984 0 3050 -32 138 -131 260 -265 326 l-78 39 -1105 2 c-609 0
-1122 -3 -1141 -7z m2235 -261 c53 -35 81 -66 100 -113 15 -35 17 -168 18
-1385 1 -1281 0 -1348 -17 -1381 -28 -54 -64 -87 -120 -109 -51 -21 -58 -21
-1106 -19 -998 3 -1057 4 -1092 21 -52 26 -116 95 -128 137 -21 74 -29 70 159
70 158 0 170 1 202 23 21 14 39 38 48 63 13 36 12 44 -4 78 -33 69 -57 76
-247 76 l-168 0 0 125 0 125 226 0 226 0 33 33 c44 44 54 94 28 143 -35 68
-59 74 -300 74 l-213 0 0 131 0 131 230 -3 229 -4 32 31 c23 23 33 43 36 78 6
53 -11 86 -60 116 -29 18 -52 20 -249 20 l-218 0 0 100 0 100 148 0 c127 0
151 3 176 19 85 56 86 156 2 207 -26 16 -56 20 -178 22 l-148 4 0 109 0 109
210 0 c232 0 257 5 285 60 32 61 14 128 -44 167 -33 22 -42 23 -242 23 l-209
0 0 115 0 115 221 0 221 0 28 28 c32 33 54 99 44 137 -8 34 -57 73 -101 81
-21 4 -122 4 -225 0 -129 -4 -188 -3 -188 4 0 48 91 138 157 156 38 10 261 12
1103 11 l1055 -2 40 -26z m309 -3114 c-7 -16 -24 -21 -24 -6 0 8 7 13 27 20 1
1 0 -6 -3 -14z m26 -10 c0 -14 -4 -25 -9 -25 -4 0 -6 11 -3 25 2 14 6 25 8 25
2 0 4 -11 4 -25z m-97 -41 c-7 -20 -10 -18 -15 11 -4 20 -2 23 8 14 7 -6 10
-17 7 -25z"/>
<path d="M4903 6435 c-56 -24 -78 -96 -48 -155 33 -63 -1 -60 683 -60 l624 0
28 28 c38 39 48 95 25 138 -35 66 -19 64 -682 64 -487 -1 -604 -3 -630 -15z"/>
<path d="M4874 5926 c-29 -29 -34 -41 -34 -80 0 -36 6 -52 29 -78 l29 -33 632
-3 632 -2 34 34 c54 54 45 135 -19 175 -34 21 -40 21 -652 21 l-617 0 -34 -34z"/>
<path d="M4874 5426 c-28 -28 -34 -42 -34 -76 0 -34 6 -48 34 -76 l34 -34 629
0 c580 0 630 2 649 18 63 50 56 159 -11 190 -19 9 -187 12 -646 12 l-621 0
-34 -34z"/>
<path d="M4887 4949 c-23 -14 -47 -62 -47 -96 0 -38 34 -91 66 -103 15 -6 265
-10 641 -10 l615 0 34 34 c26 26 34 42 34 70 0 48 -22 89 -55 104 -34 16
-1261 17 -1288 1z"/>
<path d="M7861 5365 c-1 -1078 -5 -1673 -11 -1715 -15 -94 -56 -238 -86 -306
-68 -150 -237 -352 -373 -443 -86 -58 -248 -135 -346 -163 l-80 -23 -1745 0
-1745 0 -90 32 c-165 58 -271 113 -375 198 -167 134 -292 302 -361 482 -26 70
-29 73 -23 33 26 -195 111 -420 213 -563 17 -23 55 -78 85 -122 30 -44 75
-102 100 -129 25 -27 46 -56 46 -63 0 -8 4 -12 9 -9 5 3 12 -1 15 -10 3 -8 10
-12 16 -9 5 3 7 0 4 -8 -6 -16 63 -87 84 -87 7 0 11 -4 7 -9 -3 -6 4 -15 15
-21 11 -6 20 -16 21 -23 0 -12 98 -94 125 -104 7 -3 14 -10 14 -15 0 -6 15
-24 34 -42 19 -17 54 -49 77 -71 24 -22 47 -39 52 -37 5 1 6 -1 3 -6 -8 -13
43 -54 57 -46 7 4 9 4 5 0 -13 -15 30 -49 56 -44 14 3 23 1 20 -3 -3 -5 -12
-9 -21 -9 -14 0 -14 -2 1 -19 10 -11 23 -18 29 -17 7 2 9 1 5 -1 -14 -8 -8
-25 6 -20 8 3 24 -3 37 -14 12 -10 34 -18 48 -17 15 1 32 -1 38 -5 7 -5 26 -1
43 8 28 14 34 13 31 -8 0 -4 6 -7 14 -7 8 0 15 6 15 13 0 7 10 18 23 26 21 13
21 13 5 -5 -9 -10 -20 -32 -23 -47 l-8 -28 -30 28 c-17 15 -25 20 -17 10 12
-16 12 -20 -1 -28 -10 -8 -8 -8 10 -4 17 5 22 4 16 -5 -5 -9 -4 -11 3 -6 7 4
12 1 12 -6 1 -7 7 -2 14 11 8 14 22 26 32 27 18 3 18 2 -1 -12 -16 -12 -17
-16 -6 -23 11 -7 10 -10 -5 -14 -17 -4 -17 -5 -1 -6 10 -1 21 9 27 23 5 13 14
27 20 31 5 3 7 11 4 17 -4 7 -2 8 4 4 7 -4 12 -13 12 -20 0 -8 10 -20 23 -29
20 -13 24 -13 36 0 12 13 11 14 -6 9 -12 -4 -25 -1 -32 8 -11 13 -8 14 23 9
31 -5 35 -3 30 11 -3 9 -1 16 5 16 14 0 14 -35 0 -63 -9 -18 -9 -20 2 -10 7 7
22 13 33 13 20 1 20 1 3 14 -10 8 -14 17 -8 20 5 3 11 2 13 -2 1 -5 21 -12 43
-15 22 -4 35 -3 28 1 -7 5 -9 13 -4 21 7 11 11 10 18 -4 7 -12 13 -14 17 -6 4
6 2 11 -5 11 -8 0 -8 4 1 15 18 21 29 19 23 -5 -7 -27 18 -27 35 0 7 11 17 20
23 20 6 0 0 -13 -13 -29 -23 -28 -37 -34 -49 -18 -3 4 -12 1 -19 -8 -11 -13
-9 -15 9 -15 15 0 20 -4 15 -12 -4 -7 9 2 28 20 23 21 38 30 42 23 5 -8 14 -8
29 0 20 9 21 9 4 -4 -10 -8 -28 -13 -40 -10 -21 5 -21 5 -4 -13 15 -16 19 -17
27 -5 7 12 11 12 24 2 13 -11 16 -11 16 0 0 11 2 11 10 -1 5 -8 10 -11 10 -6
0 5 7 3 15 -4 8 -7 12 -17 8 -23 -3 -6 -1 -7 6 -3 6 4 18 3 24 -3 9 -7 22 -5
44 8 23 15 30 25 28 45 -2 14 1 24 6 20 5 -3 6 -10 3 -16 -5 -7 -2 -8 7 -2 8
5 25 10 39 11 l25 2 -25 -10 c-14 -5 -32 -22 -41 -37 -14 -26 -14 -28 1 -29 9
-1 21 10 27 26 6 18 19 30 35 33 21 4 24 1 22 -18 -1 -16 2 -21 12 -17 8 3 14
8 14 12 0 4 14 7 30 6 18 -1 34 4 39 13 11 19 45 12 49 -11 3 -12 -3 -17 -19
-17 -22 0 -22 0 -3 15 19 16 19 16 -1 13 -25 -4 -26 -27 -2 -42 14 -9 20 -7
28 7 6 9 17 17 24 17 8 0 15 5 15 11 0 6 7 8 16 5 11 -4 15 -2 11 8 -4 9 0 12
13 9 17 -5 17 -6 2 -22 -11 -11 -20 -13 -24 -7 -10 15 -9 -4 2 -29 5 -11 9
-14 9 -7 1 21 24 39 43 35 10 -3 15 -11 12 -21 -5 -14 -4 -14 6 1 6 9 8 22 4
28 -4 7 -1 10 7 7 8 -3 13 -11 12 -17 -2 -6 2 -11 7 -11 6 0 10 4 10 10 0 13
34 8 52 -8 15 -12 28 -7 28 10 0 5 -4 6 -10 3 -5 -3 -8 0 -5 7 6 16 73 16 101
0 10 -6 13 -12 7 -12 -21 0 -14 -29 10 -40 19 -10 20 -9 6 2 -21 17 -4 46 24
40 20 -4 22 -13 5 -31 -11 -11 -9 -11 9 0 15 9 19 17 13 23 -16 16 -12 21 17
23 15 0 29 6 31 12 2 6 9 11 15 11 8 0 7 -4 -1 -12 -17 -17 -15 -35 8 -58 24
-24 27 -14 4 11 -9 10 -13 23 -8 30 5 9 10 5 17 -12 5 -14 11 -19 14 -11 3 6
9 12 14 12 6 0 19 9 31 19 18 17 22 18 35 6 9 -9 12 -26 9 -45 -2 -16 0 -30 5
-30 6 0 9 6 8 13 -3 24 1 37 12 37 5 0 7 -4 4 -10 -3 -5 -2 -10 3 -10 5 0 12
9 15 20 7 28 19 25 62 -17 21 -20 33 -27 27 -16 -11 20 -7 33 10 33 5 0 6 -4
3 -10 -4 -7 3 -7 20 0 18 7 33 7 47 -1 11 -6 22 -8 25 -6 2 3 -5 8 -16 12 -11
3 -19 11 -17 18 1 7 1 9 -1 4 -6 -9 -23 1 -23 14 0 18 39 9 45 -11 4 -13 15
-20 31 -20 16 0 24 -6 24 -17 0 -15 2 -16 10 -3 6 9 6 18 0 24 -6 6 -10 14
-10 20 0 5 9 0 21 -12 11 -12 17 -27 13 -33 -4 -7 -1 -10 7 -7 8 3 13 12 13
20 -1 8 5 15 12 15 7 0 11 -4 8 -9 -3 -4 2 -8 11 -8 11 0 15 5 12 14 -4 10 -1
13 8 9 8 -3 12 -9 9 -14 -5 -9 2 -12 29 -11 22 0 57 14 53 21 -3 4 4 12 15 19
11 7 19 8 19 2 0 -5 -4 -10 -10 -10 -5 0 -10 -5 -10 -10 0 -6 10 -8 24 -4 13
3 27 1 30 -5 4 -7 -1 -11 -13 -11 -13 0 -21 -7 -21 -17 0 -15 -2 -14 -14 3
-15 19 -15 18 -41 -6 -23 -24 -24 -26 -5 -26 11 0 19 5 18 11 -2 5 2 10 7 10
6 0 9 -6 9 -12 -1 -9 3 -10 17 -2 11 5 19 6 19 2 0 -4 14 7 31 25 19 19 28 36
23 44 -5 10 -4 11 7 0 18 -17 28 -15 24 6 -1 9 0 11 2 4 3 -8 10 -11 17 -9 7
3 18 -8 25 -24 11 -26 15 -28 29 -17 11 9 14 9 9 1 -8 -13 39 -50 49 -40 3 3
-3 8 -14 11 -27 9 -37 51 -18 77 13 20 14 19 11 -13 -2 -26 3 -39 22 -56 l24
-22 -3 23 c-2 12 -12 27 -23 34 -17 10 -17 12 -3 13 9 0 20 9 23 21 4 11 9 18
12 16 2 -3 0 -15 -7 -26 -6 -12 -7 -21 -1 -21 5 0 11 4 13 10 2 5 14 7 26 3
18 -4 20 -8 10 -14 -10 -7 -11 -9 0 -9 7 0 10 -4 7 -10 -3 -5 0 -7 8 -4 9 3
13 13 9 26 -3 15 -1 19 9 16 8 -3 14 -13 14 -24 0 -10 8 -20 19 -22 11 -3 16
0 12 7 -4 6 -5 11 -1 11 3 0 10 -10 15 -22 l9 -23 0 22 c1 23 21 27 49 10 16
-11 16 15 0 31 -7 7 -8 12 -4 12 5 0 15 -8 23 -18 10 -13 13 -13 11 -2 -2 10
7 16 25 18 15 2 27 7 27 12 0 5 -7 7 -15 4 -11 -5 -13 -2 -9 10 5 13 2 15 -12
10 -11 -4 -17 -5 -14 -3 53 44 49 43 43 20 -3 -14 0 -23 11 -27 9 -3 13 -11 9
-18 -14 -21 -11 -37 5 -34 9 2 16 11 14 20 -1 9 5 19 14 22 14 5 15 4 4 -9
-10 -12 -10 -15 4 -15 9 0 16 -8 16 -17 0 -14 -2 -15 -9 -5 -7 11 -9 11 -14
-2 -8 -21 16 -21 37 -1 13 13 17 12 34 -10 11 -14 23 -25 27 -25 4 0 2 6 -4
14 -10 12 -8 16 10 21 22 7 22 8 4 21 -10 7 -22 11 -26 8 -5 -3 -9 -1 -9 4 0
6 7 13 16 16 23 9 26 8 18 -6 -6 -10 -4 -10 8 0 13 10 18 10 24 1 5 -8 3 -9
-6 -4 -10 6 -12 4 -7 -9 4 -10 7 -21 7 -24 0 -4 5 0 10 8 6 10 10 11 10 3 0
-7 5 -13 10 -13 6 0 10 7 10 15 0 8 -5 15 -12 15 -6 0 -8 3 -4 7 4 4 26 8 49
9 59 3 59 3 52 14 -9 15 -27 12 -19 -2 5 -10 4 -10 -6 -1 -18 17 -4 30 18 17
23 -13 64 -6 55 9 -4 7 10 -3 31 -21 21 -18 40 -31 43 -28 9 8 -8 27 -19 20
-6 -4 -5 3 2 15 9 18 14 20 26 10 11 -9 14 -9 14 1 0 6 -9 14 -19 17 -11 3
-22 12 -26 20 -4 13 -3 14 10 3 10 -8 15 -9 15 -1 0 6 5 11 11 11 5 0 7 -4 4
-10 -3 -5 -3 -15 1 -21 4 -8 9 -7 15 2 4 7 12 10 16 5 4 -5 2 -11 -4 -13 -7
-3 -13 -9 -13 -14 0 -6 5 -7 10 -4 6 3 10 1 10 -4 0 -6 -5 -11 -11 -11 -5 0
-7 -4 -4 -10 3 -5 2 -10 -4 -10 -5 0 -12 5 -14 10 -3 6 -4 5 -3 -2 2 -7 14
-13 28 -13 21 -1 25 3 23 26 -3 33 9 54 25 44 9 -6 9 -9 -1 -16 -11 -7 -10 -9
4 -9 12 0 17 6 15 18 -2 12 3 16 17 14 11 -2 25 -5 30 -5 6 -1 9 6 7 17 -2 11
1 15 8 11 7 -4 9 -16 7 -27 -4 -15 -3 -17 8 -8 16 13 16 50 0 51 -13 1 36 17
55 17 8 1 4 -4 -10 -10 -16 -6 -20 -12 -12 -15 8 -3 10 -9 3 -17 -6 -7 -4 -20
5 -36 12 -21 14 -22 12 -5 -2 12 3 21 12 21 8 1 20 2 26 3 17 1 26 31 15 45
-6 7 -6 17 -1 26 7 11 10 12 10 2 0 -7 7 -20 15 -29 14 -14 14 -17 -1 -34 -18
-20 -13 -34 16 -42 11 -3 18 -1 14 4 -3 5 -12 9 -20 9 -8 0 -14 5 -14 10 0 6
3 10 8 10 4 0 15 14 24 30 9 17 13 30 8 30 -6 0 -10 -5 -10 -11 0 -5 -4 -8 -9
-4 -17 10 7 61 29 61 27 0 25 -14 -2 -19 -21 -3 -22 -4 -4 -12 14 -6 23 -3 32
10 14 18 14 18 14 -1 0 -15 2 -16 10 -4 5 9 5 19 -2 27 -8 10 -4 13 16 13 14
0 26 5 26 11 0 6 -7 9 -15 5 -8 -3 -15 -1 -15 4 0 6 11 10 24 10 13 0 30 8 37
17 13 15 11 16 -10 10 -17 -4 -21 -3 -13 5 6 6 18 7 29 3 10 -5 25 -7 32 -6
12 2 13 0 2 -13 -7 -8 -9 -21 -5 -27 4 -8 3 -9 -4 -5 -7 4 -12 14 -12 22 0 8
-4 13 -10 9 -6 -3 -5 -15 2 -31 12 -25 13 -25 28 -8 18 23 47 24 61 4 8 -11 9
-9 3 10 -8 31 -15 39 -21 23 -6 -18 -23 -16 -23 2 0 9 9 15 23 15 14 0 18 3
10 8 -10 6 -10 12 3 28 8 10 13 13 9 7 -4 -9 2 -13 18 -13 14 0 27 7 31 15 3
8 12 15 21 15 13 0 14 4 4 23 -6 12 -8 19 -4 15 5 -4 14 -3 22 4 12 9 14 7 12
-13 -1 -13 -1 -35 0 -49 l2 -25 9 23 c5 12 14 22 20 22 6 0 8 5 4 11 -4 8 -9
7 -15 -2 -5 -9 -7 -1 -4 20 5 42 38 79 71 79 24 0 24 -1 7 -21 -10 -11 -12
-17 -5 -13 7 4 12 2 13 -6 1 -7 4 -2 8 12 4 14 13 24 19 23 7 -2 12 2 12 8 0
5 4 8 9 4 5 -3 12 -1 16 4 6 10 -27 7 -45 -4 -6 -3 -10 -2 -10 3 0 6 -8 9 -17
7 -10 -1 -12 0 -5 2 12 5 16 15 13 44 -1 11 5 16 16 15 10 0 17 5 16 11 -2 7
2 12 8 10 6 -1 14 4 17 12 3 9 0 11 -8 6 -9 -5 -11 -4 -6 4 4 6 12 9 17 6 14
-9 11 -35 -4 -41 -16 -6 -15 -46 0 -51 6 -2 10 4 9 14 0 10 4 17 10 16 7 -1 9
8 6 22 -2 15 0 25 7 25 7 0 9 -5 5 -13 -5 -8 -2 -8 9 2 18 14 24 26 8 17 -5
-3 -11 3 -14 13 -4 15 0 18 18 16 24 -2 25 13 1 44 -8 10 -8 13 0 8 6 -3 18 3
28 15 15 17 16 22 5 29 -11 7 -11 9 2 9 8 0 21 -6 29 -13 8 -6 7 -3 -3 9 -17
20 -17 22 0 35 11 9 14 10 9 2 -5 -9 -1 -13 11 -13 15 0 16 -2 3 -10 -8 -5
-10 -10 -4 -10 31 0 18 49 -14 51 -10 0 -12 3 -4 6 6 2 10 9 6 14 -3 5 2 9 10
9 17 0 31 34 21 51 -4 6 -16 8 -27 6 -14 -4 -17 -2 -9 7 6 7 7 17 3 22 -4 5
-3 6 2 2 5 -4 15 -3 23 4 10 8 12 8 8 -4 -3 -8 2 -21 11 -29 16 -12 17 -12 11
4 -4 11 -2 20 6 23 7 2 14 16 15 30 1 18 -2 25 -11 21 -8 -3 -14 1 -14 8 0 7
7 11 15 7 12 -4 11 1 -3 24 -9 16 -11 21 -3 12 8 -10 18 -15 21 -11 4 3 7 -3
7 -15 0 -12 4 -22 9 -22 5 0 8 8 7 18 -2 9 2 20 8 24 7 5 3 8 -9 8 l-20 1 20
15 c11 8 20 25 20 37 0 12 5 21 11 20 6 -1 11 4 11 12 0 8 -5 11 -11 7 -33
-20 -71 -3 -47 21 9 9 11 8 6 -5 -9 -23 1 -23 26 1 20 18 20 20 2 31 -16 10
-16 11 0 6 9 -3 17 -2 17 1 0 4 -8 16 -17 27 -18 20 -18 20 9 3 20 -13 26 -13
22 -3 -3 7 2 20 10 28 27 28 24 52 -9 59 -16 4 -23 7 -14 8 22 1 43 27 34 42
-6 8 -10 7 -17 -2 -8 -11 -9 -11 -5 1 2 9 14 14 28 13 22 -2 22 -2 4 6 -18 8
-18 10 -3 16 11 4 16 17 16 37 -1 23 -3 26 -10 14 -5 -9 -7 -20 -3 -25 3 -5
-8 -19 -23 -30 -22 -15 -29 -17 -29 -6 0 8 4 12 8 9 4 -2 11 1 15 7 3 6 1 15
-6 19 -9 6 -7 10 8 14 20 7 36 52 21 62 -15 9 -10 20 14 32 21 11 20 11 -5 6
-31 -7 -35 0 -14 22 16 16 30 19 21 5 -3 -6 4 -9 14 -8 19 1 19 2 3 21 -9 11
-12 16 -5 13 6 -4 15 -2 19 4 4 7 3 9 -4 5 -15 -9 -23 21 -21 78 2 35 -2 50
-17 62 -10 8 -14 13 -8 10 7 -3 14 1 17 8 3 8 1 16 -6 19 -7 2 3 4 21 4 35 0
43 -12 13 -20 -14 -3 -18 -11 -15 -24 5 -20 36 -25 51 -8 5 4 3 5 -3 2 -6 -4
-20 1 -30 9 -17 14 -17 15 -1 10 18 -6 19 -5 21 36 1 19 -1 25 -8 18 -16 -16
-25 -12 -19 10 3 11 0 26 -6 33 -6 8 -7 17 -3 21 4 4 2 6 -3 4 -6 -2 -10 2
-10 7 0 6 6 9 13 8 10 -1 13 8 10 28 -3 17 1 30 9 33 7 3 13 10 13 16 0 6 -4
8 -10 5 -5 -3 -10 -1 -11 4 -2 19 -1 61 1 69 4 14 7 27 8 40 1 7 7 10 14 6 7
-4 8 -3 4 5 -4 6 -13 9 -19 5 -7 -3 -3 2 7 10 16 13 17 16 4 16 -9 0 -21 -13
-27 -30 -11 -34 -16 -37 -25 -14 -3 9 -2 12 4 9 7 -4 9 5 5 24 -4 23 0 34 17
47 16 11 17 15 6 11 -22 -8 -23 2 -2 31 21 30 10 40 -18 16 -12 -10 -18 -13
-14 -6 5 8 1 12 -11 13 -15 0 -14 2 3 9 12 5 25 13 29 19 10 17 21 13 34 -11
9 -18 10 -19 5 -3 -3 11 -7 27 -9 35 -10 49 -18 70 -26 70 -5 0 -9 -5 -9 -12
0 -6 -3 -9 -6 -5 -8 8 6 47 17 47 6 0 7 -4 4 -10 -3 -6 1 -7 9 -4 9 3 16 10
16 16 0 5 -4 7 -9 4 -5 -3 -14 1 -21 10 -11 12 -15 12 -21 2 -6 -9 -9 -6 -9 9
0 12 5 25 11 28 7 5 2 16 -13 32 l-23 26 23 -14 c12 -8 22 -18 22 -24 0 -5 4
-3 10 5 5 9 5 19 0 25 -6 7 -5 24 2 43 12 32 4 57 -11 33 -5 -7 -14 -10 -20
-7 -8 5 -7 12 4 22 8 9 19 12 25 9 6 -4 10 5 10 20 0 15 -4 24 -10 20 -6 -4
-7 -11 -4 -17 4 -6 2 -8 -3 -5 -6 4 -8 18 -5 32 2 14 -1 32 -8 40 -8 9 -8 15
-2 15 6 0 12 -6 15 -12 2 -7 4 -1 4 15 0 17 -5 27 -14 27 -8 0 -11 -4 -8 -10
3 -6 2 -10 -4 -10 -5 0 -9 9 -8 20 1 15 6 19 22 14 11 -3 25 -13 32 -21 6 -8
14 -10 17 -5 3 6 -1 12 -9 16 -8 3 -15 12 -15 21 0 8 -4 15 -10 15 -5 0 -10 7
-10 15 0 8 -7 15 -15 15 -19 0 -19 14 -1 33 10 10 11 18 4 25 -6 6 -6 12 1 16
17 11 13 26 -6 26 -13 1 -10 5 10 16 32 17 34 23 8 21 -11 0 -17 -5 -14 -11 3
-5 1 -6 -4 -3 -6 4 -10 20 -9 36 2 22 -2 28 -14 24 -10 -4 -8 -1 4 9 11 8 20
25 21 38 2 23 -33 67 -48 62 -5 -1 -6 2 -2 8 3 6 10 8 15 5 5 -3 12 -1 15 5 4
6 15 8 25 5 15 -5 17 -2 12 17 -3 12 -7 17 -10 10 -2 -6 -16 -12 -30 -11 -15
0 -21 3 -14 6 6 2 10 9 6 14 -3 5 -2 9 3 8 4 -1 17 -1 28 0 18 2 18 3 -4 12
-19 8 -21 12 -11 24 11 13 10 14 -4 9 -12 -5 -15 -2 -10 9 4 12 1 15 -15 12
-12 -2 -19 0 -16 5 3 5 15 7 26 5 16 -3 19 0 14 15 -5 15 -3 18 9 14 8 -3 12
-13 10 -22 -4 -13 -2 -13 10 3 15 18 15 20 -3 27 -25 9 -31 20 -24 46 4 17 9
20 19 11 10 -8 11 -4 3 27 -8 28 -8 39 2 45 15 9 13 11 -16 27 l-20 11 20 1
c11 0 16 4 10 8 -14 10 -17 32 -5 32 5 0 10 5 10 11 0 16 -20 0 -30 -25 -7
-17 -9 -17 -9 -3 -1 19 -16 23 -24 7 -3 -6 -4 -5 -3 2 2 7 11 12 20 11 11 0
15 4 12 13 -3 8 0 13 6 11 6 -1 13 4 15 11 3 8 -1 10 -14 5 -10 -3 -15 -3 -11
2 4 4 3 15 -1 24 -6 10 -4 25 4 41 8 16 10 32 4 47 -5 13 -6 30 -3 38 4 8 1
15 -7 15 -7 0 -9 3 -6 6 4 4 14 1 23 -7 15 -12 17 -12 12 1 -3 8 -1 23 4 33 7
13 4 19 -14 27 -13 5 -18 9 -12 9 5 1 19 8 30 16 18 15 18 15 0 8 -13 -4 -17
-3 -12 5 5 8 1 10 -11 5 -15 -5 -16 -4 -7 8 15 19 15 52 -1 39 -6 -5 -16 -5
-25 1 -13 8 -13 10 -1 18 8 5 21 7 29 3 9 -3 13 -1 9 5 -4 6 -1 14 5 17 11 5
11 7 0 12 -6 3 -9 11 -6 16 4 6 2 8 -4 4 -6 -3 -13 -2 -17 4 -4 6 -11 7 -17 4
-7 -4 -8 -2 -4 4 4 6 13 9 20 6 8 -3 17 0 22 7 4 7 2 15 -4 17 -15 5 -16 52
-1 52 6 0 8 -9 4 -20 -4 -12 -2 -20 5 -20 6 0 9 4 6 9 -4 5 0 11 6 14 10 3 8
9 -4 24 -21 23 -23 44 -5 62 9 11 9 12 0 7 -20 -11 -53 13 -53 39 0 13 4 26 8
29 5 3 7 -8 4 -23 -5 -35 16 -45 41 -21 17 17 17 17 -8 15 -14 -2 -25 -2 -25
1 0 2 15 20 33 41 17 20 27 34 21 30 -18 -10 -37 19 -29 45 4 16 3 19 -3 9 -8
-11 -10 -11 -15 0 -4 8 -3 1 0 -16 3 -16 13 -35 21 -41 9 -7 11 -13 5 -17 -10
-6 -18 7 -42 66 -9 23 -8 27 7 28 10 0 12 3 5 6 -7 2 -13 9 -13 14 0 4 6 6 13
3 8 -3 13 4 14 16 1 13 -2 18 -9 14 -7 -5 -9 0 -6 14 4 12 2 22 -3 22 -4 0 -6
7 -3 15 4 10 2 13 -8 10 -10 -4 -13 4 -10 35 2 22 9 40 14 40 6 0 8 13 4 32
-4 22 -1 37 11 51 18 19 17 20 -6 8 -17 -9 -26 -10 -34 -2 -8 8 -5 11 10 11
12 0 25 5 28 10 3 6 -1 10 -9 10 -19 0 -21 16 -3 24 6 4 -2 4 -20 1 -31 -4
-32 -4 -15 15 17 21 27 27 17 10 -3 -5 -1 -10 4 -10 6 0 11 7 11 16 0 10 5 14
16 10 9 -3 12 -2 8 5 -3 6 -15 9 -25 6 -11 -3 -19 -1 -19 4 0 5 8 9 18 10 11
1 9 4 -8 9 -24 8 -24 8 -2 9 27 1 30 21 3 21 -10 0 -21 7 -25 15 -3 8 -2 15 3
15 12 0 19 32 11 54 -4 14 -9 16 -14 8 -4 -7 -12 -12 -17 -12 -6 0 -4 6 4 14
16 16 11 66 -6 78 -13 8 -18 176 -6 184 4 2 3 17 -3 32 -6 15 -15 54 -18 87
-4 33 -8 -682 -9 -1590z m31 1250 c3 -13 1 -22 -3 -19 -9 5 -13 44 -5 44 2 0
6 -11 8 -25z m58 -359 c0 -8 -7 -17 -16 -20 -13 -5 -14 -4 -6 7 7 8 9 17 5 20
-3 4 -1 7 5 7 7 0 12 -6 12 -14z m30 -597 c0 -14 -17 -10 -23 5 -4 10 -1 13 9
9 7 -3 14 -9 14 -14z m13 -156 c-7 -2 -19 -2 -25 0 -7 3 -2 5 12 5 14 0 19 -2
13 -5z m-23 -127 c0 -3 -4 -8 -10 -11 -5 -3 -10 -1 -10 4 0 6 5 11 10 11 6 0
10 -2 10 -4z m17 -222 c-3 -3 -12 -4 -19 -1 -8 3 -5 6 6 6 11 1 17 -2 13 -5z
m7 -26 c-3 -4 -11 -5 -19 -1 -21 7 -19 12 4 10 11 0 18 -5 15 -9z m-4 -923 c0
-5 -5 -3 -10 5 -5 8 -10 20 -10 25 0 6 5 3 10 -5 5 -8 10 -19 10 -25z m14
-121 c3 -8 2 -12 -4 -9 -6 3 -10 10 -10 16 0 14 7 11 14 -7z m33 9 c-4 -3 -2
-12 4 -20 9 -9 8 -13 0 -13 -6 0 -11 2 -11 4 0 2 -3 11 -6 20 -4 10 -1 16 7
16 7 0 9 -3 6 -7z m-22 -43 c-3 -5 -12 -10 -18 -10 -7 0 -6 4 3 10 19 12 23
12 15 0z m5 -280 c0 -5 -2 -10 -4 -10 -3 0 -8 5 -11 10 -3 6 -1 10 4 10 6 0
11 -4 11 -10z m6 -156 c-4 -29 -21 -33 -21 -5 0 17 5 27 12 24 6 -2 10 -11 9
-19z m-16 -138 c0 -8 -7 -16 -15 -20 -12 -4 -13 -2 -2 14 14 24 17 25 17 6z
m-9 -54 c-7 -2 -18 1 -23 6 -8 8 -4 9 13 5 13 -4 18 -8 10 -11z m9 -37 c-7 -9
-15 -13 -17 -11 -7 7 7 26 19 26 6 0 6 -6 -2 -15z m-25 -114 c3 -5 2 -12 -3
-15 -5 -3 -9 1 -9 9 0 17 3 19 12 6z m9 -196 c-7 -18 -30 -20 -40 -3 -4 6 -3
8 4 4 6 -3 13 -2 17 4 10 16 25 12 19 -5z m-36 -41 c-4 -3 -12 5 -18 18 -12
22 -12 22 6 6 10 -10 15 -20 12 -24z m-33 -134 c-3 -5 -1 -10 5 -10 6 0 8 -5
4 -11 -4 -8 -9 -7 -15 2 -12 19 -11 29 2 29 5 0 7 -4 4 -10z m-24 -43 c-10 -9
-11 -8 -5 6 3 10 9 15 12 12 3 -3 0 -11 -7 -18z m-58 -178 c-4 -15 -9 -17 -17
-9 -8 8 -7 13 4 20 8 5 16 10 17 10 0 0 -1 -9 -4 -21z m-83 -189 c0 -5 -8 -10
-17 -10 -15 0 -16 2 -3 10 19 12 20 12 20 0z m-281 -276 c-13 -16 -22 -12 -25
10 -1 9 5 12 17 9 15 -4 17 -8 8 -19z m-219 -100 c0 -8 -19 -13 -24 -6 -3 5 1
9 9 9 8 0 15 -2 15 -3z m-3153 -110 c-3 -3 -12 -4 -19 -1 -8 3 -5 6 6 6 11 1
17 -2 13 -5z m2683 -4 c0 -5 -5 -10 -11 -10 -5 0 -7 5 -4 10 3 6 8 10 11 10 2
0 4 -4 4 -10z m340 -10 c-8 -5 -17 -7 -21 -4 -4 2 -10 0 -14 -6 -3 -5 -11 -10
-17 -10 -19 0 12 29 35 32 28 5 35 -1 17 -12z m-3365 -10 c3 -5 -4 -6 -15 -3
-11 3 -22 9 -25 13 -3 5 4 6 15 3 11 -3 22 -9 25 -13z m271 -15 c-4 -16 -2
-25 5 -25 7 0 9 -3 6 -7 -4 -3 -15 1 -25 10 -10 10 -22 14 -25 10 -4 -3 -7 2
-7 12 0 15 3 16 12 7 16 -16 28 -15 28 3 0 8 3 15 6 15 3 0 3 -11 0 -25z m58
17 c3 -5 -1 -9 -9 -9 -8 0 -12 4 -9 9 3 4 7 8 9 8 2 0 6 -4 9 -8z m2546 0 c0
-5 -7 -17 -15 -28 -14 -18 -14 -17 -4 9 12 27 19 34 19 19z m70 -12 c-6 -11
-13 -20 -16 -20 -2 0 0 9 6 20 6 11 13 20 16 20 2 0 0 -9 -6 -20z m-2840 6 c0
-3 -4 -8 -10 -11 -5 -3 -10 -1 -10 4 0 6 5 11 10 11 6 0 10 -2 10 -4z m2936
-21 c1 -14 -2 -22 -7 -19 -11 6 -12 44 -1 44 4 0 8 -11 8 -25z m-51 5 c3 -5 1
-10 -4 -10 -6 0 -11 5 -11 10 0 6 2 10 4 10 3 0 8 -4 11 -10z m-2665 -9 c0 -6
-4 -12 -8 -15 -5 -3 -9 1 -9 9 0 8 4 15 9 15 4 0 8 -4 8 -9z m35 -1 c3 -6 -1
-7 -9 -4 -18 7 -21 14 -7 14 6 0 13 -4 16 -10z m2475 6 c0 -2 -7 -7 -16 -10
-8 -3 -12 -2 -9 4 6 10 25 14 25 6z m-1133 -21 c0 -8 -4 -12 -9 -9 -5 3 -6 10
-3 15 9 13 12 11 12 -6z m820 -4 c0 -11 -4 -18 -8 -15 -4 2 -10 0 -13 -5 -4
-5 1 -11 9 -13 13 -2 13 -5 -3 -14 -15 -10 -18 -8 -17 15 1 29 12 51 25 51 5
0 8 -9 7 -19z m32 -7 c-6 -8 -15 -12 -18 -8 -3 4 0 9 7 11 6 3 9 10 6 15 -4 7
-2 8 5 4 9 -6 9 -11 0 -22z m-2119 1 c0 -18 -20 -19 -44 -2 -15 11 -14 13 13
15 22 2 31 -2 31 -13z m650 5 c0 -5 -5 -10 -11 -10 -5 0 -7 5 -4 10 3 6 8 10
11 10 2 0 4 -4 4 -10z m-390 -15 c-12 -15 -5 -55 10 -55 15 0 24 24 12 28 -7
2 -12 8 -12 12 0 5 13 2 29 -8 16 -9 27 -20 25 -24 -3 -5 -10 -5 -16 -2 -6 4
-14 0 -19 -7 -11 -17 -42 -1 -47 25 -3 16 14 46 25 46 3 0 0 -7 -7 -15z m685
5 c-3 -5 -16 -10 -28 -9 -20 1 -20 2 3 9 14 4 26 8 28 9 2 1 0 -3 -3 -9z m185
0 c0 -5 -2 -10 -4 -10 -3 0 -8 5 -11 10 -3 6 -1 10 4 10 6 0 11 -4 11 -10z
m471 -37 c-8 -15 -10 -11 -9 15 1 26 3 30 10 18 5 -10 5 -23 -1 -33z m273 26
c-6 -11 -24 -2 -24 11 0 5 7 7 15 4 8 -4 12 -10 9 -15z m160 0 c-6 -11 -24 -2
-24 11 0 5 7 7 15 4 8 -4 12 -10 9 -15z m297 4 c12 -15 12 -16 -3 -10 -10 3
-18 2 -18 -2 0 -10 28 -24 58 -30 4 -1 1 -5 -7 -10 -8 -5 -18 -5 -25 0 -6 5
-20 16 -30 23 -17 12 -18 15 -5 29 17 20 14 20 30 0z m29 7 c0 -5 -2 -10 -4
-10 -3 0 -8 5 -11 10 -3 6 -1 10 4 10 6 0 11 -4 11 -10z m54 1 c3 -4 -6 -6
-19 -3 -14 2 -25 6 -25 8 0 8 39 4 44 -5z m-1934 -13 c0 7 5 10 11 6 8 -4 7
-9 -2 -14 -16 -10 -41 -1 -33 12 4 6 10 5 15 -3 7 -11 9 -11 9 -1z m380 2 c0
-5 -2 -10 -4 -10 -3 0 -8 5 -11 10 -3 6 -1 10 4 10 6 0 11 -4 11 -10z m145 0
c3 -6 -1 -7 -9 -4 -18 7 -21 14 -7 14 6 0 13 -4 16 -10z m281 1 c-4 -5 0 -11
6 -14 10 -3 10 -7 1 -17 -17 -19 -35 -3 -23 21 6 10 13 19 16 19 3 0 3 -4 0
-9z m224 1 c0 -13 -12 -22 -22 -16 -10 6 -1 24 13 24 5 0 9 -4 9 -8z m45 -2
c-3 -5 -14 -10 -23 -9 -14 0 -13 2 3 9 27 11 27 11 20 0z m441 -9 c1 -6 0 -7
-3 -1 -2 5 -9 8 -13 5 -5 -3 -11 -1 -14 4 -4 5 2 8 11 7 9 -2 18 -8 19 -15z
m-1776 -1 c0 -5 -7 -7 -15 -4 -8 4 -15 8 -15 10 0 2 7 4 15 4 8 0 15 -4 15
-10z m535 -8 c-3 -3 -11 0 -18 7 -9 10 -8 11 6 5 10 -3 15 -9 12 -12z m215 -3
c0 -6 -4 -7 -10 -4 -5 3 -10 11 -10 16 0 6 5 7 10 4 6 -3 10 -11 10 -16z m132
14 c-6 -3 -9 -10 -5 -16 4 -7 -1 -6 -10 2 -21 17 -21 17 6 18 12 0 16 -1 9 -4z
m245 -25 c-3 -7 -5 -2 -5 12 0 14 2 19 5 13 2 -7 2 -19 0 -25z m-137 12 c0 -5
-4 -10 -10 -10 -5 0 -10 5 -10 10 0 6 5 10 10 10 6 0 10 -4 10 -10z m240 6 c0
-11 -19 -15 -25 -6 -3 5 1 10 9 10 9 0 16 -2 16 -4z m396 -5 c-4 -5 0 -12 6
-14 8 -3 6 -6 -4 -6 -10 -1 -18 6 -18 14 0 8 5 15 11 15 5 0 8 -4 5 -9z m271
-13 c-3 -8 -6 -5 -6 6 -1 11 2 17 5 13 3 -3 4 -12 1 -19z m-397 -32 c0 -3 -4
-8 -10 -11 -5 -3 -10 -1 -10 4 0 6 5 11 10 11 6 0 10 -2 10 -4z"/>
<path d="M7900 6740 c0 -5 5 -10 11 -10 5 0 7 5 4 10 -3 6 -8 10 -11 10 -2 0
-4 -4 -4 -10z"/>
<path d="M7942 6515 c-6 -14 -7 -25 -2 -25 9 0 25 39 18 46 -3 2 -10 -7 -16
-21z"/>
<path d="M7950 6213 c0 -13 27 -49 33 -43 3 3 -3 16 -14 29 -10 13 -19 19 -19
14z"/>
<path d="M7980 6126 c0 -8 4 -17 8 -20 4 -2 8 4 8 15 0 10 -4 19 -8 19 -4 0
-8 -6 -8 -14z"/>
<path d="M8006 5597 c3 -10 9 -15 12 -12 3 3 0 11 -7 18 -10 9 -11 8 -5 -6z"/>
<path d="M8020 5496 c0 -8 4 -17 9 -20 5 -4 7 3 4 14 -6 23 -13 26 -13 6z"/>
<path d="M7980 5432 c0 -5 6 -17 14 -28 14 -18 15 -18 13 3 -1 20 -27 43 -27
25z"/>
<path d="M7976 5344 c-8 -21 12 -26 23 -6 7 14 6 19 -4 19 -8 0 -16 -6 -19
-13z"/>
<path d="M7990 5069 c0 -5 5 -7 10 -4 6 3 10 8 10 11 0 2 -4 4 -10 4 -5 0 -10
-5 -10 -11z"/>
<path d="M8016 5063 c-6 -14 -5 -15 5 -6 7 7 10 15 7 18 -3 3 -9 -2 -12 -12z"/>
<path d="M8006 4961 c-3 -5 3 -11 15 -14 16 -4 18 -3 8 9 -13 16 -16 17 -23 5z"/>
<path d="M7986 4872 c-3 -5 1 -9 9 -9 8 0 12 4 9 9 -3 4 -7 8 -9 8 -2 0 -6 -4
-9 -8z"/>
<path d="M8015 4840 c3 -5 8 -10 11 -10 2 0 4 5 4 10 0 6 -5 10 -11 10 -5 0
-7 -4 -4 -10z"/>
<path d="M8021 4804 c0 -11 3 -14 6 -6 3 7 2 16 -1 19 -3 4 -6 -2 -5 -13z"/>
<path d="M8015 4759 c-5 -8 -4 -10 3 -5 7 4 12 1 12 -8 0 -8 -6 -17 -12 -19
-10 -4 -10 -6 0 -6 17 -1 27 28 14 41 -6 6 -12 6 -17 -3z"/>
<path d="M8028 4633 c7 -3 16 -2 19 1 4 3 -2 6 -13 5 -11 0 -14 -3 -6 -6z"/>
<path d="M8064 4589 c-3 -6 -2 -15 3 -20 5 -5 9 -1 9 11 0 23 -2 24 -12 9z"/>
<path d="M8065 4349 c-4 -6 -5 -12 -2 -15 2 -3 7 2 10 11 7 17 1 20 -8 4z"/>
<path d="M8036 4282 c-2 -4 5 -14 17 -22 20 -12 21 -12 9 2 -10 13 -10 17 0
21 9 4 7 6 -4 6 -9 1 -19 -3 -22 -7z"/>
<path d="M8020 4215 c-10 -12 -9 -15 7 -15 10 0 24 -5 31 -12 9 -9 9 -5 0 15
-15 31 -21 33 -38 12z"/>
<path d="M8035 3930 c-3 -5 -1 -10 4 -10 6 0 11 5 11 10 0 6 -2 10 -4 10 -3 0
-8 -4 -11 -10z"/>
<path d="M8050 3699 c0 -5 5 -7 10 -4 6 3 10 8 10 11 0 2 -4 4 -10 4 -5 0 -10
-5 -10 -11z"/>
<path d="M8040 3640 c0 -5 5 -10 10 -10 6 0 10 5 10 10 0 6 -4 10 -10 10 -5 0
-10 -4 -10 -10z"/>
<path d="M3889 3602 c15 -27 184 -214 259 -284 33 -32 67 -58 75 -58 8 0 18
-7 21 -16 5 -13 9 -14 21 -4 8 6 23 9 34 5 10 -3 22 -1 26 5 4 6 12 7 24 1 20
-11 61 -4 61 10 0 5 8 9 18 9 14 0 15 -2 2 -10 -12 -7 -10 -9 7 -7 12 0 19 6
15 12 -3 5 7 2 22 -9 21 -13 28 -15 24 -4 -4 9 1 14 13 15 10 1 19 -2 19 -8 0
-5 -4 -9 -10 -9 -5 0 -10 -5 -10 -12 0 -6 10 -3 22 8 12 10 18 13 13 5 -6 -11
-4 -13 9 -8 14 5 17 3 12 -8 -3 -8 0 -15 5 -15 7 0 9 11 7 25 -5 25 5 34 17
15 5 -8 11 -7 21 1 10 8 18 9 27 0 8 -6 17 -8 21 -4 4 4 4 0 0 -10 -8 -21 2
-22 21 -3 10 9 36 14 77 14 35 0 68 0 73 2 6 1 17 2 25 0 11 -1 10 -4 -5 -11
-16 -7 -13 -8 13 -4 23 3 31 1 26 -6 -4 -7 -1 -10 7 -7 8 3 13 11 12 17 -2 6
11 11 30 12 17 0 46 1 64 2 26 2 29 0 20 -12 -10 -12 -9 -13 6 -8 10 4 21 7
23 7 3 0 2 6 -1 13 -4 6 1 3 11 -8 14 -17 16 -17 11 -2 -7 18 8 24 18 7 3 -5
12 -10 18 -10 7 0 6 4 -3 11 -12 8 -10 10 10 5 15 -3 32 1 44 12 18 16 19 16
13 0 -3 -10 -1 -20 5 -24 7 -5 8 -2 3 6 -5 8 -3 11 6 8 8 -3 26 -1 42 3 16 5
27 4 27 -2 0 -6 5 -7 11 -3 6 3 15 1 19 -6 6 -9 12 -9 29 -1 17 10 21 9 21 -5
0 -13 4 -11 20 7 11 14 19 18 20 11 0 -9 7 -11 20 -7 11 3 20 2 20 -4 0 -12
69 -4 87 11 10 8 13 6 13 -8 0 -11 4 -15 8 -9 11 15 66 13 78 -3 9 -13 12 -13
17 1 4 11 12 14 23 10 14 -5 15 -3 5 15 -7 12 -8 22 -2 22 5 0 12 -12 16 -27
l8 -28 11 28 12 28 12 -26 c13 -27 42 -34 42 -10 0 24 20 17 21 -7 0 -22 1
-22 9 -3 5 11 9 14 9 8 1 -7 8 -13 16 -13 8 0 12 6 9 14 -3 8 -1 17 5 21 6 3
11 -1 11 -9 0 -15 12 -21 34 -17 4 1 14 -3 21 -9 10 -8 15 -8 21 1 4 7 3 9 -4
5 -6 -3 -13 -2 -16 3 -8 12 56 23 68 11 13 -13 36 -13 36 1 0 5 -5 7 -12 3 -7
-5 -8 -3 -4 5 6 9 13 8 27 -5 11 -9 22 -14 26 -10 4 4 2 11 -6 15 -10 6 -9 10
4 14 9 4 13 3 10 -3 -3 -6 -2 -10 4 -10 6 0 7 -8 4 -17 -6 -16 -5 -17 12 -3
10 8 16 10 12 3 -5 -8 0 -11 13 -10 11 1 20 5 20 9 0 5 10 4 21 -3 13 -7 19
-7 15 -1 -3 6 -1 14 5 18 7 4 9 3 5 -4 -12 -19 15 -24 35 -6 10 9 19 13 19 9
0 -4 9 0 20 10 20 18 21 18 14 0 -6 -16 -4 -17 22 -11 18 4 24 3 16 -2 -11 -8
-11 -10 2 -15 9 -4 16 1 19 11 4 16 5 15 6 0 0 -10 5 -18 11 -18 5 0 7 7 4 15
-4 10 0 15 15 15 12 0 21 5 21 10 0 6 -10 8 -24 4 -13 -3 -26 -2 -29 3 -3 4 7
8 22 8 32 0 64 -22 54 -38 -3 -6 -1 -7 5 -3 6 3 93 -77 201 -186 l191 -193 0
328 c0 180 -3 327 -8 327 -4 0 -13 -9 -20 -20 -15 -24 -91 -63 -154 -78 -61
-15 -2345 -18 -2432 -3 -72 13 -149 57 -223 130 -30 29 -50 44 -44 33z m1564
-308 c9 -9 -4 -35 -14 -28 -5 3 -9 12 -9 20 0 14 12 19 23 8z"/>
<path d="M8035 3479 c-9 -14 0 -22 18 -17 13 2 13 5 2 15 -10 9 -16 9 -20 2z"/>
<path d="M8031 3301 c-8 -5 -9 -11 -3 -15 5 -3 12 1 16 9 6 17 6 18 -13 6z"/>
<path d="M5920 3260 c0 -5 7 -7 15 -4 8 4 15 8 15 10 0 2 -7 4 -15 4 -8 0 -15
-4 -15 -10z"/>
<path d="M5220 3256 c0 -2 7 -7 16 -10 8 -3 12 -2 9 4 -6 10 -25 14 -25 6z"/>
<path d="M4590 3238 c0 -4 11 -7 25 -6 33 3 33 16 0 14 -14 0 -25 -4 -25 -8z"/>
<path d="M4770 3240 c0 -6 7 -10 15 -10 8 0 15 2 15 4 0 2 -7 6 -15 10 -8 3
-15 1 -15 -4z"/>
<path d="M8008 3128 c-10 -10 -14 -18 -9 -18 10 0 36 29 30 34 -2 1 -12 -6
-21 -16z"/>
<path d="M8035 3060 c3 -5 8 -10 11 -10 2 0 4 5 4 10 0 6 -5 10 -11 10 -5 0
-7 -4 -4 -10z"/>
<path d="M7975 2980 c-3 -5 1 -10 10 -10 9 0 13 5 10 10 -3 6 -8 10 -10 10 -2
0 -7 -4 -10 -10z"/>
<path d="M7965 2861 c-3 -5 -2 -12 3 -15 5 -3 9 1 9 9 0 17 -3 19 -12 6z"/>
<path d="M7929 2713 c-13 -16 -12 -17 4 -4 9 7 17 15 17 17 0 8 -8 3 -21 -13z"/>
<path d="M7896 2685 c4 -8 8 -15 10 -15 2 0 4 7 4 15 0 8 -4 15 -10 15 -5 0
-7 -7 -4 -15z"/>
<path d="M7850 2628 c0 -11 12 -10 30 2 12 7 10 9 -8 7 -12 0 -22 -5 -22 -9z"/>
<path d="M7800 2525 c0 -2 6 -8 13 -14 10 -8 14 -7 14 2 0 8 -6 14 -14 14 -7
0 -13 -1 -13 -2z"/>
<path d="M7781 2494 c0 -11 3 -14 6 -6 3 7 2 16 -1 19 -3 4 -6 -2 -5 -13z"/>
<path d="M7770 2420 c-12 -7 -10 -9 7 -7 12 0 19 5 17 9 -6 10 -6 10 -24 -2z"/>
<path d="M7664 2382 c-6 -4 -8 -16 -4 -26 6 -18 7 -18 13 4 7 28 6 32 -9 22z"/>
<path d="M7722 2330 c0 -14 2 -19 5 -12 2 6 2 18 0 25 -3 6 -5 1 -5 -13z"/>
<path d="M7601 2301 c-9 -6 -11 -15 -6 -27 5 -11 8 -22 7 -25 -1 -4 9 -4 21
-1 19 5 20 7 4 10 -14 3 -18 10 -14 28 2 13 4 24 3 24 0 0 -7 -4 -15 -9z"/>
<path d="M7570 2264 c0 -8 5 -12 10 -9 6 4 8 11 5 16 -9 14 -15 11 -15 -7z"/>
<path d="M7463 2151 c-15 -12 -18 -22 -12 -32 7 -11 9 -11 9 4 0 9 4 17 9 17
5 0 11 7 15 15 7 19 6 18 -21 -4z"/>
<path d="M7524 2158 c3 -15 26 -23 26 -8 0 6 -4 9 -9 6 -5 -4 -12 -1 -14 4 -3
6 -4 5 -3 -2z"/>
<path d="M7309 2093 c-1 -10 -1 -25 0 -33 1 -12 -2 -11 -13 3 -13 17 -14 17
-18 -1 -4 -15 0 -19 16 -17 36 4 37 5 31 15 -3 6 -2 10 4 10 13 0 7 33 -7 38
-7 2 -13 -5 -13 -15z"/>
<path d="M7360 2062 c0 -5 7 -9 15 -9 8 0 15 4 15 9 0 4 -7 8 -15 8 -8 0 -15
-4 -15 -8z"/>
<path d="M7216 2003 c-6 -14 -5 -15 5 -6 7 7 10 15 7 18 -3 3 -9 -2 -12 -12z"/>
<path d="M7255 2000 c-3 -5 -1 -10 4 -10 6 0 11 5 11 10 0 6 -2 10 -4 10 -3 0
-8 -4 -11 -10z"/>
<path d="M7207 1955 c3 -8 9 -12 14 -9 12 7 11 11 -5 17 -10 4 -13 1 -9 -8z"/>
<path d="M6967 1927 c-3 -7 3 -13 14 -13 13 0 15 3 7 13 -6 7 -12 13 -13 13
-2 0 -5 -6 -8 -13z"/>
<path d="M3810 1916 c0 -8 4 -17 9 -21 6 -3 9 4 8 15 -1 23 -17 28 -17 6z"/>
<path d="M7018 1923 c7 -3 16 -2 19 1 4 3 -2 6 -13 5 -11 0 -14 -3 -6 -6z"/>
<path d="M6738 1895 c-7 -16 -14 -21 -18 -14 -6 8 -9 8 -14 0 -4 -6 -4 -11 1
-12 4 0 16 -2 25 -4 11 -2 15 2 11 11 -3 9 1 14 12 14 10 0 13 -5 9 -12 -4 -7
-3 -8 5 -4 6 4 9 12 6 17 -4 5 1 9 10 9 9 0 13 -5 9 -11 -7 -12 15 -31 28 -23
4 3 8 11 8 17 0 7 -4 6 -10 -3 -8 -13 -10 -12 -10 3 0 10 -12 22 -26 27 -34
13 -33 14 -46 -15z"/>
<path d="M3995 1880 c3 -5 8 -10 11 -10 2 0 4 5 4 10 0 6 -5 10 -11 10 -5 0
-7 -4 -4 -10z"/>
<path d="M5337 1875 c-8 -18 11 -31 25 -17 11 11 3 32 -12 32 -4 0 -10 -7 -13
-15z"/>
<path d="M6660 1886 c0 -2 7 -6 15 -10 8 -3 15 -1 15 4 0 6 -7 10 -15 10 -8 0
-15 -2 -15 -4z"/>
<path d="M4305 1870 c-3 -5 -1 -10 4 -10 6 0 11 5 11 10 0 6 -2 10 -4 10 -3 0
-8 -4 -11 -10z"/>
<path d="M5040 1870 c0 -5 7 -10 16 -10 8 0 12 5 9 10 -3 6 -10 10 -16 10 -5
0 -9 -4 -9 -10z"/>
<path d="M5213 1865 c0 -8 4 -15 9 -15 4 0 8 7 8 15 0 8 -4 15 -8 15 -5 0 -9
-7 -9 -15z"/>
<path d="M5988 1869 c-10 -5 -18 -18 -17 -27 0 -10 3 -12 6 -4 6 14 33 16 33
2 0 -5 5 -10 12 -10 6 0 4 7 -5 18 -10 10 -14 22 -10 25 9 10 1 8 -19 -4z"/>
<path d="M6385 1870 c-3 -6 1 -7 9 -4 18 7 21 14 7 14 -6 0 -13 -4 -16 -10z"/>
<path d="M4170 1855 c-7 -8 -9 -15 -6 -15 4 0 14 7 22 15 9 8 11 15 6 15 -5 0
-15 -7 -22 -15z"/>
<path d="M4589 1868 c0 -2 -2 -14 -5 -27 -3 -19 -2 -21 9 -12 8 6 17 8 20 5 3
-4 5 3 4 15 -1 11 -7 21 -14 21 -7 0 -13 -1 -14 -2z"/>
<path d="M4690 1856 c0 -8 5 -18 10 -21 6 -3 10 3 10 14 0 12 -4 21 -10 21 -5
0 -10 -6 -10 -14z"/>
<path d="M6150 1861 c0 -5 6 -12 13 -14 9 -4 8 -8 -3 -16 -9 -7 -10 -11 -3
-11 17 0 24 15 17 34 -7 17 -24 22 -24 7z"/>
<path d="M3969 1843 c-13 -17 -13 -17 6 -3 11 8 22 16 24 17 2 2 0 3 -6 3 -6
0 -17 -8 -24 -17z"/>
<path d="M4400 1840 c23 -20 30 -24 30 -16 0 9 -32 36 -42 36 -6 0 -1 -9 12
-20z"/>
<path d="M6389 1843 c-13 -16 -12 -17 4 -4 9 7 17 15 17 17 0 8 -8 3 -21 -13z"/>
<path d="M4291 1828 c1 -16 3 -18 6 -6 2 9 14 19 26 21 18 4 17 5 -5 6 -23 1
-28 -3 -27 -21z"/>
<path d="M4816 1833 c-6 -14 -5 -15 5 -6 7 7 10 15 7 18 -3 3 -9 -2 -12 -12z"/>
<path d="M4874 1835 c3 -20 26 -44 26 -27 0 7 -4 12 -10 12 -5 0 -7 7 -4 15 4
8 2 15 -4 15 -6 0 -9 -7 -8 -15z"/>
<path d="M5300 1839 c0 -5 5 -7 10 -4 6 3 10 8 10 11 0 2 -4 4 -10 4 -5 0 -10
-5 -10 -11z"/>
<path d="M5635 1840 c-3 -5 -1 -10 4 -10 6 0 11 5 11 10 0 6 -2 10 -4 10 -3 0
-8 -4 -11 -10z"/>
<path d="M5733 1835 c0 -8 4 -15 9 -15 4 0 8 4 8 9 0 6 -4 12 -8 15 -5 3 -9
-1 -9 -9z"/>
<path d="M5765 1840 c7 -12 45 -14 45 -2 0 4 -11 9 -26 10 -14 1 -23 -2 -19
-8z"/>
<path d="M6417 1836 c-3 -8 2 -16 12 -19 11 -3 17 2 18 14 2 22 -22 26 -30 5z"/>
<path d="M6707 1837 c-3 -8 1 -14 8 -14 7 0 11 6 8 14 -3 7 -6 13 -8 13 -2 0
-5 -6 -8 -13z"/>
<path d="M4656 1823 c-4 -9 -3 -20 1 -24 4 -4 9 3 9 17 2 28 -1 31 -10 7z"/>
<path d="M5056 1827 c3 -10 9 -15 12 -12 3 3 0 11 -7 18 -10 9 -11 8 -5 -6z"/>
<path d="M5196 1818 c3 -5 10 -6 15 -3 13 9 11 12 -6 12 -8 0 -12 -4 -9 -9z"/>
<path d="M6035 1819 c-4 -6 -4 -13 -1 -16 3 -4 6 -1 6 6 0 8 6 11 16 7 8 -3
12 -2 9 4 -8 13 -22 13 -30 -1z"/>
<path d="M4355 1810 c3 -5 8 -10 11 -10 2 0 4 5 4 10 0 6 -5 10 -11 10 -5 0
-7 -4 -4 -10z"/>
<path d="M5175 1800 c3 -5 8 -10 11 -10 2 0 4 5 4 10 0 6 -5 10 -11 10 -5 0
-7 -4 -4 -10z"/>
<path d="M5950 1799 c0 -5 5 -7 10 -4 6 3 10 8 10 11 0 2 -4 4 -10 4 -5 0 -10
-5 -10 -11z"/>
<path d="M5990 1801 c0 -6 4 -13 10 -16 6 -3 7 1 4 9 -7 18 -14 21 -14 7z"/>
<path d="M6355 1800 c-3 -5 -1 -10 4 -10 6 0 11 5 11 10 0 6 -2 10 -4 10 -3 0
-8 -4 -11 -10z"/>
<path d="M5893 1775 c0 -8 4 -12 9 -9 5 3 6 10 3 15 -9 13 -12 11 -12 -6z"/>
<path d="M4530 1751 c0 -6 4 -13 10 -16 6 -3 7 1 4 9 -7 18 -14 21 -14 7z"/>
</g>
</svg>
