<svg width="18" height="18" viewBox="0 0 18 18" fill="none" xmlns="http://www.w3.org/2000/svg">
<path id="Vector" d="M5.14819 13.0161L6.73299 12.5589L16.2751 2.90248C16.3504 2.82535 16.3923 2.72171 16.3918 2.61395C16.3913 2.50618 16.3484 2.40294 16.2724 2.32652L15.701 1.74875C15.664 1.71081 15.6199 1.6806 15.5712 1.65989C15.5225 1.63918 15.4701 1.62838 15.4172 1.62813C15.3642 1.62788 15.3117 1.63818 15.2628 1.65842C15.2139 1.67867 15.1695 1.70846 15.1322 1.74605L5.61526 11.3773L5.14819 13.0161ZM16.8322 0.604018L17.4037 1.18268C18.192 1.98094 18.1992 3.26876 17.4181 4.05892L7.58525 14.0105L4.19784 14.9861C3.99103 15.044 3.7697 15.0174 3.58242 14.9123C3.39515 14.8072 3.25722 14.6321 3.1989 14.4254C3.15551 14.2768 3.15488 14.119 3.1971 13.97L4.18254 10.5142L13.9893 0.588719C14.1757 0.400952 14.3977 0.252194 14.6423 0.151122C14.8869 0.0500492 15.1491 -0.00131474 15.4138 2.55701e-05C15.6784 0.00136588 15.9401 0.0553837 16.1836 0.158928C16.4272 0.262473 16.6476 0.414372 16.8322 0.604018ZM6.46571 1.64166C6.91208 1.64166 7.27386 2.00794 7.27386 2.45971C7.27457 2.5665 7.25423 2.67239 7.21399 2.77132C7.17375 2.87024 7.1144 2.96027 7.03935 3.03624C6.96429 3.11222 6.875 3.17266 6.77657 3.2141C6.67814 3.25554 6.57251 3.27717 6.46571 3.27776H3.2331C2.34035 3.27776 1.61679 4.01032 1.61679 4.91297V14.7278C1.61679 15.6313 2.34035 16.3639 3.2331 16.3639H12.9309C13.8237 16.3639 14.5481 15.6313 14.5481 14.7278V11.4565C14.5481 11.0047 14.9099 10.6384 15.3563 10.6384C15.8027 10.6384 16.1644 11.0047 16.1644 11.4574V14.7278C16.1644 16.5349 14.7164 18 12.9309 18H3.2331C1.4476 18 0.000488281 16.5349 0.000488281 14.7278V4.91297C0.000488281 3.10677 1.4476 1.64166 3.2331 1.64166H6.46571Z" fill="black"/>
</svg>
