<svg width="48" height="48" viewBox="0 0 48 48" fill="none" xmlns="http://www.w3.org/2000/svg">
<g clip-path="url(#clip0_214_89)">
<path d="M48 24C48 10.7452 37.2548 0 24 0C10.7452 0 0 10.7452 0 24C0 37.2548 10.7452 48 24 48C37.2548 48 48 37.2548 48 24Z" fill="#FEE500"/>
<path fill-rule="evenodd" clip-rule="evenodd" d="M23.6935 12.5C17.5343 12.5 12.0454 16.7614 12.0454 22.0181C12.0454 25.2863 14.1686 28.1691 17.4015 29.8829L16.0412 34.8759C15.9206 35.318 16.4233 35.6695 16.8089 35.4134L22.7719 31.4592C23.2746 31.5075 23.7862 31.5361 23.6935 31.5361C31.0781 31.5361 35.9547 27.274 35.9547 22.0181C35.9547 16.7614 31.0781 12.5 23.6935 12.5Z" fill="black" fill-opacity="0.902"/>
</g>
<defs>
<clipPath id="clip0_214_89">
<rect width="48" height="48" fill="white"/>
</clipPath>
</defs>
</svg>
