<svg width="16" height="16" viewBox="0 0 16 16" fill="none" xmlns="http://www.w3.org/2000/svg">
<path id="Vector" fill-rule="evenodd" clip-rule="evenodd" d="M7.11705 1.60502e-08C5.98215 9.67028e-05 4.86373 0.271595 3.85509 0.791843C2.84646 1.31209 1.97686 2.066 1.31885 2.99068C0.660841 3.91536 0.233502 4.98399 0.0724849 6.10741C-0.0885319 7.23083 0.0214432 8.37647 0.393235 9.44874C0.765027 10.521 1.38785 11.4888 2.20975 12.2715C3.03165 13.0541 4.02879 13.6288 5.11798 13.9476C6.20716 14.2665 7.35681 14.3203 8.47101 14.1045C9.5852 13.8887 10.6316 13.4096 11.523 12.7071L14.5809 15.765C14.7388 15.9175 14.9503 16.0019 15.1698 16C15.3894 15.9981 15.5994 15.91 15.7546 15.7548C15.9099 15.5995 15.9979 15.3895 15.9998 15.17C16.0018 14.9504 15.9174 14.7389 15.7648 14.581L12.707 11.5231C13.5342 10.4736 14.0493 9.21247 14.1933 7.88392C14.3372 6.55538 14.1043 5.21314 13.521 4.01081C12.9378 2.80849 12.0278 1.79466 10.8953 1.08535C9.76273 0.376043 8.45338 -8.97127e-05 7.11705 1.60502e-08ZM1.67451 7.11717C1.67451 5.67372 2.24792 4.28939 3.2686 3.26871C4.28927 2.24804 5.6736 1.67463 7.11705 1.67463C8.56051 1.67463 9.94484 2.24804 10.9655 3.26871C11.9862 4.28939 12.5596 5.67372 12.5596 7.11717C12.5596 8.56063 11.9862 9.94496 10.9655 10.9656C9.94484 11.9863 8.56051 12.5597 7.11705 12.5597C5.6736 12.5597 4.28927 11.9863 3.2686 10.9656C2.24792 9.94496 1.67451 8.56063 1.67451 7.11717Z" fill="#606060"/>
</svg>
