<svg width="18" height="16" viewBox="0 0 18 16" fill="none" xmlns="http://www.w3.org/2000/svg">
<g id="Group">
<path id="Vector" fill-rule="evenodd" clip-rule="evenodd" d="M17.0299 3.45313C17.2466 3.66992 17.3683 3.96392 17.3683 4.27047C17.3683 4.57702 17.2466 4.87102 17.0299 5.08782L8.36469 13.753C8.25018 13.8675 8.11423 13.9584 7.96459 14.0204C7.81496 14.0824 7.65459 14.1143 7.49262 14.1143C7.33066 14.1143 7.17029 14.0824 7.02066 14.0204C6.87102 13.9584 6.73507 13.8675 6.62056 13.753L2.31534 9.44853C2.20492 9.34188 2.11685 9.21432 2.05626 9.07327C1.99567 8.93223 1.96378 8.78053 1.96245 8.62702C1.96111 8.47352 1.99036 8.32129 2.04849 8.17921C2.10662 8.03713 2.19246 7.90806 2.30101 7.79951C2.40956 7.69096 2.53863 7.60512 2.68071 7.54699C2.82279 7.48886 2.97502 7.45961 3.12852 7.46095C3.28203 7.46228 3.43373 7.49417 3.57477 7.55476C3.71582 7.61535 3.84338 7.70342 3.95003 7.81384L7.49224 11.3561L15.3944 3.45313C15.5018 3.3457 15.6292 3.26047 15.7695 3.20233C15.9099 3.14419 16.0602 3.11426 16.2121 3.11426C16.364 3.11426 16.5144 3.14419 16.6547 3.20233C16.795 3.26047 16.9225 3.3457 17.0299 3.45313Z" fill="#F06544"/>
</g>
</svg>
