<svg width="48" height="48" viewBox="0 0 48 48" fill="none" xmlns="http://www.w3.org/2000/svg">
<rect x="0.05" y="0.05" width="47.9" height="47.9" rx="23.95" stroke="black" stroke-width="0.1"/>
<mask id="mask0_177_81" style="mask-type:luminance" maskUnits="userSpaceOnUse" x="12" y="12" width="24" height="24">
<path d="M36 12H12V36H36V12Z" fill="white"/>
</mask>
<g mask="url(#mask0_177_81)">
<path d="M35.52 24.276C35.52 23.424 35.448 22.608 35.304 21.816H24V26.46H30.456C30.18 27.96 29.328 29.232 28.056 30.084V33.096H31.932C34.2 31.008 35.508 27.936 35.508 24.276H35.52Z" fill="#4285F4"/>
<path d="M23.9997 36C27.2397 36 29.9517 34.92 31.9437 33.096L28.0677 30.084C26.9877 30.804 25.6197 31.224 23.9997 31.224C20.8797 31.224 18.2277 29.112 17.2797 26.28H13.2717V29.388C15.2517 33.312 19.3077 36 23.9997 36Z" fill="#34A853"/>
<path d="M17.28 26.2801C17.04 25.5601 16.908 24.7921 16.908 24.0001C16.908 23.2081 17.04 22.4401 17.28 21.7201V18.6121H13.272C12.456 20.2321 12 22.0681 12 24.0001C12 25.9321 12.468 27.7681 13.272 29.3881L17.28 26.2801Z" fill="#FBBC04"/>
<path d="M23.9997 16.7761C25.7637 16.7761 27.3477 17.3761 28.5837 18.5761L32.0277 15.1321C29.9517 13.2001 27.2277 12.0121 23.9997 12.0121C19.3077 12.0001 15.2517 14.6881 13.2717 18.6121L17.2797 21.7201C18.2277 18.8881 20.8677 16.7761 23.9997 16.7761Z" fill="#E94235"/>
</g>
</svg>
