<svg width="12" height="12" viewBox="0 0 12 12" fill="none" xmlns="http://www.w3.org/2000/svg">
<path id="Vector" fill-rule="evenodd" clip-rule="evenodd" d="M5.33767 1.20377e-08C4.48649 7.25271e-05 3.64767 0.203696 2.8912 0.593882C2.13472 0.984069 1.48252 1.5495 0.989016 2.24301C0.495509 2.93652 0.175004 3.73799 0.0542416 4.58056C-0.066521 5.42312 0.0159603 6.28235 0.294804 7.08656C0.573648 7.89077 1.04077 8.61663 1.65719 9.20359C2.27362 9.79055 3.02147 10.2216 3.83836 10.4607C4.65525 10.6999 5.51749 10.7402 6.35313 10.5784C7.18878 10.4165 7.97361 10.0572 8.64213 9.53031L10.9355 11.8237C11.054 11.9381 11.2126 12.0014 11.3773 12C11.5419 11.9985 11.6994 11.9325 11.8159 11.8161C11.9323 11.6996 11.9983 11.5421 11.9998 11.3775C12.0012 11.2128 11.9379 11.0542 11.8235 10.9357L9.5301 8.64234C10.1505 7.85524 10.5369 6.90935 10.6448 5.91294C10.7528 4.91653 10.5781 3.90985 10.1406 3.00811C9.70321 2.10637 9.02073 1.346 8.17133 0.814015C7.32193 0.282032 6.33991 -6.72845e-05 5.33767 1.20377e-08ZM1.25576 5.33788C1.25576 4.25529 1.68582 3.21704 2.45132 2.45153C3.21683 1.68603 4.25508 1.25597 5.33767 1.25597C6.42026 1.25597 7.45851 1.68603 8.22401 2.45153C8.98952 3.21704 9.41958 4.25529 9.41958 5.33788C9.41958 6.42047 8.98952 7.45872 8.22401 8.22423C7.45851 8.98973 6.42026 9.41979 5.33767 9.41979C4.25508 9.41979 3.21683 8.98973 2.45132 8.22423C1.68582 7.45872 1.25576 6.42047 1.25576 5.33788Z" fill="black"/>
</svg>
