<svg width="12" height="10" viewBox="0 0 12 10" fill="none" xmlns="http://www.w3.org/2000/svg">
<g id="Group">
<path id="Vector" fill-rule="evenodd" clip-rule="evenodd" d="M11.0187 2.1582C11.1542 2.2937 11.2303 2.47745 11.2303 2.66904C11.2303 2.86064 11.1542 3.04439 11.0187 3.17988L5.60299 8.59561C5.53142 8.6672 5.44645 8.72398 5.35293 8.76273C5.25941 8.80147 5.15918 8.82141 5.05795 8.82141C4.95672 8.82141 4.85649 8.80147 4.76297 8.76273C4.66945 8.72398 4.58448 8.6672 4.51291 8.59561L1.82215 5.90533C1.75314 5.83868 1.69809 5.75895 1.66022 5.67079C1.62236 5.58264 1.60242 5.48783 1.60159 5.39189C1.60076 5.29595 1.61904 5.20081 1.65537 5.11201C1.6917 5.02321 1.74535 4.94253 1.81319 4.87469C1.88103 4.80685 1.96171 4.7532 2.05051 4.71687C2.1393 4.68054 2.23445 4.66226 2.33039 4.66309C2.42633 4.66392 2.52114 4.68386 2.60929 4.72173C2.69745 4.75959 2.77718 4.81464 2.84383 4.88365L5.05771 7.09753L9.99656 2.1582C10.0637 2.09106 10.1433 2.0378 10.231 2.00146C10.3187 1.96512 10.4127 1.94641 10.5076 1.94641C10.6026 1.94641 10.6966 1.96512 10.7843 2.00146C10.8719 2.0378 10.9516 2.09106 11.0187 2.1582Z" fill="white"/>
</g>
</svg>
