<svg width="46" height="46" viewBox="0 0 46 46" fill="none" xmlns="http://www.w3.org/2000/svg">
<path d="M22.082 10.0833C28.7088 10.0833 34.0806 15.455 34.0806 22.0818C34.0806 28.7086 28.7088 34.0803 22.082 34.0803C20.141 34.0829 18.2284 33.6126 16.5099 32.7101L11.3626 34.0503C11.1906 34.0951 11.0098 34.0942 10.8383 34.0476C10.6668 34.0011 10.5104 33.9105 10.3847 33.7849C10.259 33.6593 10.1682 33.503 10.1215 33.3315C10.0748 33.16 10.0737 32.9793 10.1183 32.8073L11.4573 27.6611C10.5524 25.9408 10.0808 24.0256 10.0835 22.0818C10.0835 15.455 15.4553 10.0833 22.082 10.0833ZM23.5843 23.2816H18.1825L18.0601 23.29C17.8447 23.3197 17.6474 23.4263 17.5045 23.5902C17.3616 23.754 17.2829 23.9641 17.2829 24.1815C17.2829 24.3989 17.3616 24.609 17.5045 24.7729C17.6474 24.9368 17.8447 25.0434 18.0601 25.073L18.1825 25.0814H23.5843L23.7054 25.073C23.9208 25.0434 24.1182 24.9368 24.2611 24.7729C24.404 24.609 24.4827 24.3989 24.4827 24.1815C24.4827 23.9641 24.404 23.754 24.2611 23.5902C24.1182 23.4263 23.9208 23.3197 23.7054 23.29L23.5843 23.2816ZM25.9816 19.0822H18.1825L18.0601 19.0906C17.8447 19.1202 17.6474 19.2268 17.5045 19.3907C17.3616 19.5546 17.2829 19.7646 17.2829 19.982C17.2829 20.1995 17.3616 20.4095 17.5045 20.5734C17.6474 20.7373 17.8447 20.8439 18.0601 20.8735L18.1825 20.8819H25.9816L26.104 20.8735C26.3193 20.8439 26.5167 20.7373 26.6596 20.5734C26.8025 20.4095 26.8812 20.1995 26.8812 19.982C26.8812 19.7646 26.8025 19.5546 26.6596 19.3907C26.5167 19.2268 26.3193 19.1202 26.104 19.0906L25.9816 19.0822Z" fill="#E0E0E0"/>
</svg>
