<svg width="12" height="12" viewBox="0 0 12 12" fill="none" xmlns="http://www.w3.org/2000/svg">
<path id="Vector" fill-rule="evenodd" clip-rule="evenodd" d="M6 10.875C7.29293 10.875 8.53291 10.3614 9.44715 9.44715C10.3614 8.53291 10.875 7.29293 10.875 6C10.875 4.70707 10.3614 3.46709 9.44715 2.55285C8.53291 1.63861 7.29293 1.125 6 1.125C4.70707 1.125 3.46709 1.63861 2.55285 2.55285C1.63861 3.46709 1.125 4.70707 1.125 6C1.125 7.29293 1.63861 8.53291 2.55285 9.44715C3.46709 10.3614 4.70707 10.875 6 10.875ZM6 12C7.5913 12 9.11742 11.3679 10.2426 10.2426C11.3679 9.11742 12 7.5913 12 6C12 4.4087 11.3679 2.88258 10.2426 1.75736C9.11742 0.632141 7.5913 0 6 0C4.4087 0 2.88258 0.632141 1.75736 1.75736C0.632141 2.88258 0 4.4087 0 6C0 7.5913 0.632141 9.11742 1.75736 10.2426C2.88258 11.3679 4.4087 12 6 12ZM6.75 8.25C6.75 8.44891 6.67098 8.63968 6.53033 8.78033C6.38968 8.92098 6.19891 9 6 9C5.80109 9 5.61032 8.92098 5.46967 8.78033C5.32902 8.63968 5.25 8.44891 5.25 8.25C5.25 8.05109 5.32902 7.86032 5.46967 7.71967C5.61032 7.57902 5.80109 7.5 6 7.5C6.19891 7.5 6.38968 7.57902 6.53033 7.71967C6.67098 7.86032 6.75 8.05109 6.75 8.25ZM6.5625 3.5625C6.5625 3.41332 6.50324 3.27024 6.39775 3.16475C6.29226 3.05926 6.14918 3 6 3C5.85082 3 5.70774 3.05926 5.60225 3.16475C5.49676 3.27024 5.4375 3.41332 5.4375 3.5625V6.1875C5.4375 6.33668 5.49676 6.47976 5.60225 6.58525C5.70774 6.69074 5.85082 6.75 6 6.75C6.14918 6.75 6.29226 6.69074 6.39775 6.58525C6.50324 6.47976 6.5625 6.33668 6.5625 6.1875V3.5625Z" fill="#F00A0A"/>
</svg>
